<svg xmlns="http://www.w3.org/2000/svg" viewBox="0 0 48 48">
  <title>26-calendar</title>
  <g id="_26-calendar" data-name="26-calendar">
    <path d="M35,48H3a3,3,0,0,1-3-3V20H2V45a1,1,0,0,0,1,1H35a1,1,0,0,0,1-1V32h2V45A3,3,0,0,1,35,48Z" fill="white"/>
    <path d="M20,18H1a1,1,0,0,1-1-1V13a3,3,0,0,1,3-3H20v2H3a1,1,0,0,0-1,1v3H20Z" fill="white"/>
    <rect x="8" y="8" width="2" height="6" fill="white"/>
    <rect x="18" y="8" width="2" height="6" fill="white"/>
    <path d="M11,26H5a1,1,0,0,1-1-1V21a1,1,0,0,1,1-1h6a1,1,0,0,1,1,1v4A1,1,0,0,1,11,26ZM6,24h4V22H6Z" fill="white"/>
    <path d="M20,26H16a1,1,0,0,1-1-1V21a1,1,0,0,1,1-1h4v2H17v2h3Z" fill="white"/>
    <path d="M11,35H5a1,1,0,0,1-1-1V30a1,1,0,0,1,1-1h6a1,1,0,0,1,1,1v4A1,1,0,0,1,11,35ZM6,33h4V31H6Z" fill="white"/>
    <path d="M22,35H16a1,1,0,0,1-1-1V30a1,1,0,0,1,1-1h6a1,1,0,0,1,1,1v4A1,1,0,0,1,22,35Zm-5-2h4V31H17Z" fill="white"/>
    <path d="M33,35H27a1,1,0,0,1-1-1V30a1,1,0,0,1,1-1h6a1,1,0,0,1,1,1v4A1,1,0,0,1,33,35Zm-5-2h4V31H28Z" fill="white"/>
    <path d="M11,44H5a1,1,0,0,1-1-1V39a1,1,0,0,1,1-1h6a1,1,0,0,1,1,1v4A1,1,0,0,1,11,44ZM6,42h4V40H6Z" fill="white"/>
    <path d="M22,44H16a1,1,0,0,1-1-1V39a1,1,0,0,1,1-1h6a1,1,0,0,1,1,1v4A1,1,0,0,1,22,44Zm-5-2h4V40H17Z" fill="white"/>
    <path d="M33,44H27a1,1,0,0,1-1-1V39a1,1,0,0,1,1-1h6a1,1,0,0,1,1,1v4A1,1,0,0,1,33,44Zm-5-2h4V40H28Z" fill="white"/>
    <path d="M37,30a.987.987,0,0,1-.383-.076A1,1,0,0,1,36,29V26H25a3,3,0,0,1-3-3V3a3,3,0,0,1,3-3H45a3,3,0,0,1,3,3V23a3,3,0,0,1-3,3H41.414l-3.707,3.707A1,1,0,0,1,37,30ZM25,2a1,1,0,0,0-1,1V23a1,1,0,0,0,1,1H37a1,1,0,0,1,1,1v1.586l2.293-2.293A1,1,0,0,1,41,24h4a1,1,0,0,0,1-1V3a1,1,0,0,0-1-1Z" fill="white"/>
    <path d="M37,19H33a1,1,0,0,1-1-1V16H30a1,1,0,0,1-1-1V11a1,1,0,0,1,1-1h2V8a1,1,0,0,1,1-1h4a1,1,0,0,1,1,1v2h2a1,1,0,0,1,1,1v4a1,1,0,0,1-1,1H38v2A1,1,0,0,1,37,19Zm-3-2h2V15a1,1,0,0,1,1-1h2V12H37a1,1,0,0,1-1-1V9H34v2a1,1,0,0,1-1,1H31v2h2a1,1,0,0,1,1,1Z" fill="white"/>
  </g>
</svg>
