<svg width="428" height="100" viewBox="0 0 428 100" fill="none" xmlns="http://www.w3.org/2000/svg">
<rect width="100" height="100" rx="22" fill="#F9F1F8"/>
<rect x="39" y="5" width="25" height="90" fill="#761111"/>
<rect x="6" y="38" width="90" height="25" fill="#1D296C"/>
<path d="M120.32 74V29.3H128.48V48.8H147.5V29.3H155.72V74H147.5V56H128.48V74H120.32ZM179.144 74.72C175.784 74.72 172.844 73.96 170.324 72.44C167.804 70.92 165.844 68.86 164.444 66.26C163.044 63.66 162.344 60.78 162.344 57.62C162.344 54.34 163.044 51.44 164.444 48.92C165.884 46.36 167.824 44.34 170.264 42.86C172.744 41.38 175.504 40.64 178.544 40.64C181.104 40.64 183.344 41.06 185.264 41.9C187.224 42.74 188.884 43.9 190.244 45.38C191.604 46.86 192.644 48.56 193.364 50.48C194.084 52.36 194.444 54.4 194.444 56.6C194.444 57.16 194.404 57.74 194.324 58.34C194.284 58.94 194.184 59.46 194.024 59.9H168.824V53.9H189.584L185.864 56.72C186.224 54.88 186.124 53.24 185.564 51.8C185.044 50.36 184.164 49.22 182.924 48.38C181.724 47.54 180.264 47.12 178.544 47.12C176.904 47.12 175.444 47.54 174.164 48.38C172.884 49.18 171.904 50.38 171.224 51.98C170.584 53.54 170.344 55.44 170.504 57.68C170.344 59.68 170.604 61.46 171.284 63.02C172.004 64.54 173.044 65.72 174.404 66.56C175.804 67.4 177.404 67.82 179.204 67.82C181.004 67.82 182.524 67.44 183.764 66.68C185.044 65.92 186.044 64.9 186.764 63.62L193.124 66.74C192.484 68.3 191.484 69.68 190.124 70.88C188.764 72.08 187.144 73.02 185.264 73.7C183.424 74.38 181.384 74.72 179.144 74.72ZM210.185 74.72C207.905 74.72 205.925 74.34 204.245 73.58C202.565 72.82 201.265 71.74 200.345 70.34C199.425 68.9 198.965 67.24 198.965 65.36C198.965 63.56 199.365 61.96 200.165 60.56C200.965 59.12 202.205 57.92 203.885 56.96C205.565 56 207.685 55.32 210.245 54.92L220.925 53.18V59.18L211.745 60.74C210.185 61.02 209.025 61.52 208.265 62.24C207.505 62.96 207.125 63.9 207.125 65.06C207.125 66.18 207.545 67.08 208.385 67.76C209.265 68.4 210.345 68.72 211.625 68.72C213.265 68.72 214.705 68.38 215.945 67.7C217.225 66.98 218.205 66 218.885 64.76C219.605 63.52 219.965 62.16 219.965 60.68V52.28C219.965 50.88 219.405 49.72 218.285 48.8C217.205 47.84 215.765 47.36 213.965 47.36C212.285 47.36 210.785 47.82 209.465 48.74C208.185 49.62 207.245 50.8 206.645 52.28L200.225 49.16C200.865 47.44 201.865 45.96 203.225 44.72C204.625 43.44 206.265 42.44 208.145 41.72C210.025 41 212.065 40.64 214.265 40.64C216.945 40.64 219.305 41.14 221.345 42.14C223.385 43.1 224.965 44.46 226.085 46.22C227.245 47.94 227.825 49.96 227.825 52.28V74H220.385V68.42L222.065 68.3C221.225 69.7 220.225 70.88 219.065 71.84C217.905 72.76 216.585 73.48 215.105 74C213.625 74.48 211.985 74.72 210.185 74.72ZM235.09 74V28.58H242.95V74H235.09ZM265.087 74.36C261.407 74.36 258.547 73.36 256.507 71.36C254.507 69.32 253.507 66.46 253.507 62.78V48.38H247.867V41.36H248.467C250.067 41.36 251.307 40.94 252.187 40.1C253.067 39.26 253.507 38.04 253.507 36.44V33.92H261.367V41.36H268.867V48.38H261.367V62.36C261.367 63.44 261.547 64.36 261.907 65.12C262.307 65.88 262.907 66.46 263.707 66.86C264.547 67.26 265.607 67.46 266.887 67.46C267.167 67.46 267.487 67.44 267.847 67.4C268.247 67.36 268.627 67.32 268.987 67.28V74C268.427 74.08 267.787 74.16 267.067 74.24C266.347 74.32 265.687 74.36 265.087 74.36ZM274.992 74V28.58H282.852V47.78L281.772 46.64C282.532 44.68 283.772 43.2 285.492 42.2C287.252 41.16 289.292 40.64 291.612 40.64C294.012 40.64 296.132 41.16 297.972 42.2C299.852 43.24 301.312 44.7 302.352 46.58C303.392 48.42 303.912 50.56 303.912 53V74H296.052V54.86C296.052 53.42 295.772 52.18 295.212 51.14C294.652 50.1 293.872 49.3 292.872 48.74C291.912 48.14 290.772 47.84 289.452 47.84C288.172 47.84 287.032 48.14 286.032 48.74C285.032 49.3 284.252 50.1 283.692 51.14C283.132 52.18 282.852 53.42 282.852 54.86V74H274.992ZM311.218 74V29.3H327.898C330.938 29.3 333.618 29.86 335.938 30.98C338.298 32.06 340.138 33.66 341.458 35.78C342.778 37.86 343.438 40.4 343.438 43.4C343.438 46.36 342.758 48.9 341.398 51.02C340.078 53.1 338.258 54.7 335.938 55.82C333.618 56.94 330.938 57.5 327.898 57.5H319.378V74H311.218ZM319.378 50.3H328.018C329.498 50.3 330.778 50.02 331.858 49.46C332.938 48.86 333.778 48.04 334.378 47C334.978 45.96 335.278 44.76 335.278 43.4C335.278 42 334.978 40.8 334.378 39.8C333.778 38.76 332.938 37.96 331.858 37.4C330.778 36.8 329.498 36.5 328.018 36.5H319.378V50.3ZM349.465 74V28.58H357.325V74H349.465ZM376.222 74.72C373.702 74.72 371.502 74.16 369.622 73.04C367.782 71.92 366.362 70.36 365.362 68.36C364.402 66.36 363.922 64.02 363.922 61.34V41.36H371.782V60.68C371.782 62.04 372.042 63.24 372.562 64.28C373.122 65.28 373.902 66.08 374.902 66.68C375.942 67.24 377.102 67.52 378.382 67.52C379.662 67.52 380.802 67.24 381.802 66.68C382.802 66.08 383.582 65.26 384.142 64.22C384.702 63.18 384.982 61.94 384.982 60.5V41.36H392.842V74H385.402V67.58L386.062 68.72C385.302 70.72 384.042 72.22 382.282 73.22C380.562 74.22 378.542 74.72 376.222 74.72ZM412.568 74.72C409.088 74.72 406.048 73.9 403.448 72.26C400.888 70.58 399.128 68.32 398.168 65.48L404.048 62.66C404.888 64.5 406.048 65.94 407.528 66.98C409.048 68.02 410.728 68.54 412.568 68.54C414.008 68.54 415.148 68.22 415.988 67.58C416.828 66.94 417.248 66.1 417.248 65.06C417.248 64.42 417.068 63.9 416.708 63.5C416.388 63.06 415.928 62.7 415.328 62.42C414.768 62.1 414.148 61.84 413.468 61.64L408.128 60.14C405.368 59.34 403.268 58.12 401.828 56.48C400.428 54.84 399.728 52.9 399.728 50.66C399.728 48.66 400.228 46.92 401.228 45.44C402.268 43.92 403.688 42.74 405.488 41.9C407.328 41.06 409.428 40.64 411.788 40.64C414.868 40.64 417.588 41.38 419.948 42.86C422.308 44.34 423.988 46.42 424.988 49.1L418.988 51.92C418.428 50.44 417.488 49.26 416.168 48.38C414.848 47.5 413.368 47.06 411.728 47.06C410.408 47.06 409.368 47.36 408.608 47.96C407.848 48.56 407.468 49.34 407.468 50.3C407.468 50.9 407.628 51.42 407.948 51.86C408.268 52.3 408.708 52.66 409.268 52.94C409.868 53.22 410.548 53.48 411.308 53.72L416.528 55.28C419.208 56.08 421.268 57.28 422.708 58.88C424.188 60.48 424.928 62.44 424.928 64.76C424.928 66.72 424.408 68.46 423.368 69.98C422.328 71.46 420.888 72.62 419.048 73.46C417.208 74.3 415.048 74.72 412.568 74.72Z" fill="white"/>
</svg>
